<svg width="36" height="36" viewBox="0 0 36 36" fill="none" xmlns="http://www.w3.org/2000/svg">
<path d="M15.0938 13.7891L22.5312 18.0156L15.0938 22.2422V13.7891ZM35.5 4.25V31.75C35.5 33.8203 33.8203 35.5 31.75 35.5H4.25C2.17969 35.5 0.5 33.8203 0.5 31.75V4.25C0.5 2.17969 2.17969 0.5 4.25 0.5H31.75C33.8203 0.5 35.5 2.17969 35.5 4.25ZM32.2188 18.0234C32.2188 18.0234 32.2188 13.3672 31.625 11.1328C31.2969 9.89844 30.3359 8.92969 29.1094 8.60156C26.8984 8 18 8 18 8C18 8 9.10156 8 6.89062 8.60156C5.66406 8.92969 4.70312 9.89844 4.375 11.1328C3.78125 13.3594 3.78125 18.0234 3.78125 18.0234C3.78125 18.0234 3.78125 22.6797 4.375 24.9141C4.70312 26.1484 5.66406 27.0781 6.89062 27.4062C9.10156 28 18 28 18 28C18 28 26.8984 28 29.1094 27.3984C30.3359 27.0703 31.2969 26.1406 31.625 24.9062C32.2188 22.6797 32.2188 18.0234 32.2188 18.0234Z" fill="#71717A"/>
</svg>
