<svg width="16" height="17" viewBox="0 0 16 17" fill="none" xmlns="http://www.w3.org/2000/svg">
<g clip-path="url(#clip0_1294_197)">
<path d="M15.4736 0.877191C15.6665 1.01754 15.7455 1.20468 15.7104 1.43859L13.4648 14.9123C13.4356 15.0819 13.342 15.2134 13.1841 15.307C13.1022 15.3538 13.0116 15.3772 12.9122 15.3772C12.8478 15.3772 12.7777 15.3626 12.7016 15.3333L8.07883 13.4474L5.46479 16.3158C5.35953 16.4386 5.2221 16.5 5.05251 16.5C4.97064 16.5 4.90339 16.4883 4.85076 16.4649C4.73965 16.424 4.65193 16.3553 4.5876 16.2588C4.52327 16.1623 4.49111 16.0556 4.49111 15.9386V11.9737L0.350757 10.2807C0.134383 10.1988 0.0174242 10.038 -0.000119703 9.79824C-0.0176636 9.57017 0.0759037 9.39766 0.280582 9.2807L14.8771 0.859647C15.0817 0.73684 15.2806 0.742688 15.4736 0.877191ZM12.4736 14.0263L14.4122 2.42105L1.83321 9.67544L4.78058 10.8772L12.3508 5.27193L8.15777 12.2632L12.4736 14.0263Z" fill="white"/>
</g>
<defs>
<clipPath id="clip0_1294_197">
<rect width="15.7193" height="16" fill="white" transform="translate(0 0.5)"/>
</clipPath>
</defs>
</svg>
