<svg width="40" height="40" viewBox="0 0 40 40" fill="none" xmlns="http://www.w3.org/2000/svg">
<path d="M30 36.6667C28.6111 36.6667 27.4306 36.1806 26.4583 35.2084C25.4861 34.2362 25 33.0556 25 31.6667C25 31.4723 25.0139 31.2709 25.0417 31.0625C25.0694 30.8542 25.1111 30.6667 25.1667 30.5L13.4167 23.6667C12.9444 24.0834 12.4167 24.4098 11.8333 24.6459C11.25 24.882 10.6389 25 10 25C8.61111 25 7.43056 24.5139 6.45833 23.5417C5.48611 22.5695 5 21.3889 5 20C5 18.6112 5.48611 17.4306 6.45833 16.4584C7.43056 15.4862 8.61111 15 10 15C10.6389 15 11.25 15.1181 11.8333 15.3542C12.4167 15.5903 12.9444 15.9167 13.4167 16.3334L25.1667 9.50004C25.1111 9.33337 25.0694 9.14587 25.0417 8.93754C25.0139 8.72921 25 8.52782 25 8.33337C25 6.94448 25.4861 5.76393 26.4583 4.79171C27.4306 3.81949 28.6111 3.33337 30 3.33337C31.3889 3.33337 32.5694 3.81949 33.5417 4.79171C34.5139 5.76393 35 6.94448 35 8.33337C35 9.72226 34.5139 10.9028 33.5417 11.875C32.5694 12.8473 31.3889 13.3334 30 13.3334C29.3611 13.3334 28.75 13.2153 28.1667 12.9792C27.5833 12.7431 27.0556 12.4167 26.5833 12L14.8333 18.8334C14.8889 19 14.9306 19.1875 14.9583 19.3959C14.9861 19.6042 15 19.8056 15 20C15 20.1945 14.9861 20.3959 14.9583 20.6042C14.9306 20.8125 14.8889 21 14.8333 21.1667L26.5833 28C27.0556 27.5834 27.5833 27.257 28.1667 27.0209C28.75 26.7848 29.3611 26.6667 30 26.6667C31.3889 26.6667 32.5694 27.1528 33.5417 28.125C34.5139 29.0973 35 30.2778 35 31.6667C35 33.0556 34.5139 34.2362 33.5417 35.2084C32.5694 36.1806 31.3889 36.6667 30 36.6667ZM30 10C30.4722 10 30.8681 9.84032 31.1875 9.52087C31.5069 9.20143 31.6667 8.8056 31.6667 8.33337C31.6667 7.86115 31.5069 7.46532 31.1875 7.14587C30.8681 6.82643 30.4722 6.66671 30 6.66671C29.5278 6.66671 29.1319 6.82643 28.8125 7.14587C28.4931 7.46532 28.3333 7.86115 28.3333 8.33337C28.3333 8.8056 28.4931 9.20143 28.8125 9.52087C29.1319 9.84032 29.5278 10 30 10ZM10 21.6667C10.4722 21.6667 10.8681 21.507 11.1875 21.1875C11.5069 20.8681 11.6667 20.4723 11.6667 20C11.6667 19.5278 11.5069 19.132 11.1875 18.8125C10.8681 18.4931 10.4722 18.3334 10 18.3334C9.52778 18.3334 9.13194 18.4931 8.8125 18.8125C8.49306 19.132 8.33333 19.5278 8.33333 20C8.33333 20.4723 8.49306 20.8681 8.8125 21.1875C9.13194 21.507 9.52778 21.6667 10 21.6667ZM30 33.3334C30.4722 33.3334 30.8681 33.1737 31.1875 32.8542C31.5069 32.5348 31.6667 32.1389 31.6667 31.6667C31.6667 31.1945 31.5069 30.7987 31.1875 30.4792C30.8681 30.1598 30.4722 30 30 30C29.5278 30 29.1319 30.1598 28.8125 30.4792C28.4931 30.7987 28.3333 31.1945 28.3333 31.6667C28.3333 32.1389 28.4931 32.5348 28.8125 32.8542C29.1319 33.1737 29.5278 33.3334 30 33.3334Z" fill="#CA8A04"/>
</svg>
